<svg xmlns="http://www.w3.org/2000/svg" version="1.1" xmlns:xlink="http://www.w3.org/1999/xlink" xmlns:svgjs="http://svgjs.com/svgjs" width="512" height="512" x="0" y="0" viewBox="0 0 512 512" style="enable-background:new 0 0 512 512" xml:space="preserve" class=""><g><g xmlns="http://www.w3.org/2000/svg" id="Out_line" data-name="Out line"><path d="M392,16H120A40.04584,40.04584,0,0,0,80,56V232H96V56a24.0275,24.0275,0,0,1,24-24H392a24.0275,24.0275,0,0,1,24,24V456a24.0275,24.0275,0,0,1-24,24H144v16H392a40.04584,40.04584,0,0,0,40-40V56A40.04584,40.04584,0,0,0,392,16Z" fill="#ffffff" data-original="#000000"></path><path d="M400,408V56a8.00039,8.00039,0,0,0-8-8H120a8.00039,8.00039,0,0,0-8,8V232h16V64H384V400H168v16H392A8.00039,8.00039,0,0,0,400,408Z" fill="#ffffff" data-original="#000000"></path><path d="M232,448a24,24,0,1,0,24-24A24.0275,24.0275,0,0,0,232,448Zm32,0a8,8,0,1,1-8-8A8.00917,8.00917,0,0,1,264,448Z" fill="#ffffff" data-original="#000000"></path><path d="M472,80a24.0275,24.0275,0,0,0-24,24V392a7.99934,7.99934,0,0,0,.84473,3.57812l16,32a8.00009,8.00009,0,0,0,14.31054,0l16-32A7.99934,7.99934,0,0,0,496,392V104A24.0275,24.0275,0,0,0,472,80Zm0,16a8.00917,8.00917,0,0,1,8,8v24H464V104A8.00917,8.00917,0,0,1,472,96Zm0,310.11133-8-16V144h16V390.11133Z" fill="#ffffff" data-original="#000000"></path><path d="M171.794,270.80566a8.00189,8.00189,0,0,0,7.78417.34961l2.26319-1.13183A80.013,80.013,0,0,0,326.60986,277.626c.24829-.12061.49829-.23584.74561-.35938l12.22265-6.11133A8.00022,8.00022,0,0,0,344,264V216a7.99951,7.99951,0,0,0-11.57812-7.15527l-2.26319,1.13159a80.0132,80.0132,0,0,0-144.77051-7.59888c-.24756.12036-.49707.23267-.74365.356l-12.22265,6.11133A8.00022,8.00022,0,0,0,168,216v48A8.00151,8.00151,0,0,0,171.794,270.80566ZM256,304a64.08984,64.08984,0,0,1-59.7063-40.96,56.36273,56.36273,0,0,1,54.9065,7.36035,72.46089,72.46089,0,0,0,43.55859,14.61133c2.3894,0,4.782-.12647,7.16943-.36524A63.57306,63.57306,0,0,1,256,304Zm0-128a64.08933,64.08933,0,0,1,59.7063,40.96045,56.36185,56.36185,0,0,1-54.9065-7.36084,72.3438,72.3438,0,0,0-50.73193-14.24219A63.57292,63.57292,0,0,1,256,176Zm-72,44.94434,7.80078-3.90039a56.40578,56.40578,0,0,1,59.39942,5.35644,72.32509,72.32509,0,0,0,76.15527,6.86621L328,228.94434v30.11132l-7.80078,3.90039a56.41,56.41,0,0,1-59.39942-5.35644,72.33,72.33,0,0,0-76.15527-6.86621L184,251.05566Z" fill="#ffffff" data-original="#000000"></path><path d="M160,144h40V128H152a8.00039,8.00039,0,0,0-8,8v48h16Z" fill="#ffffff" data-original="#000000"></path><path d="M368,136a8.00039,8.00039,0,0,0-8-8H312v16h40v40h16Z" fill="#ffffff" data-original="#000000"></path><path d="M352,336H312v16h48a8.00039,8.00039,0,0,0,8-8V296H352Z" fill="#ffffff" data-original="#000000"></path><rect x="144" y="200" width="16" height="32" fill="#ffffff" data-original="#000000"></rect><rect x="216" y="128" width="32" height="16" fill="#ffffff" data-original="#000000"></rect><rect x="264" y="128" width="32" height="16" fill="#ffffff" data-original="#000000"></rect><rect x="352" y="200" width="16" height="32" fill="#ffffff" data-original="#000000"></rect><rect x="352" y="248" width="16" height="32" fill="#ffffff" data-original="#000000"></rect><rect x="264" y="336" width="32" height="16" fill="#ffffff" data-original="#000000"></rect><rect x="216" y="336" width="32" height="16" fill="#ffffff" data-original="#000000"></rect><path d="M152,440a23.90134,23.90134,0,0,0-6.13086-16,23.94484,23.94484,0,0,0-.76269-32.81152A80.011,80.011,0,1,0,16,328a79.49544,79.49544,0,0,0,30.89355,63.18848A23.94484,23.94484,0,0,0,46.13086,424a23.97828,23.97828,0,0,0,12.63379,39.418l14.08008,28.16015A8.00022,8.00022,0,0,0,80,496h32a8.00022,8.00022,0,0,0,7.15527-4.42188L133.23535,463.418A24.03769,24.03769,0,0,0,152,440ZM56,408a8.00917,8.00917,0,0,1,8-8h64a8,8,0,0,1,0,16H64A8.00917,8.00917,0,0,1,56,408Zm25.44336-56h29.11328l-5.334,32H86.77734ZM32,328a64,64,0,1,1,94.999,56h-5.55493l6.44751-38.68457A8.00034,8.00034,0,0,0,120,336H72a8.00034,8.00034,0,0,0-7.8916,9.31543L70.55591,384H65.001A63.6432,63.6432,0,0,1,32,328ZM64,432h64a8,8,0,0,1,0,16H64a8,8,0,0,1,0-16Zm43.05566,48H84.94434l-8-16h38.11132Z" fill="#ffffff" data-original="#000000"></path></g></g></svg>