<svg xmlns="http://www.w3.org/2000/svg" version="1.1" xmlns:xlink="http://www.w3.org/1999/xlink" xmlns:svgjs="http://svgjs.com/svgjs" width="512" height="512" x="0" y="0" viewBox="0 0 511.96 511.96" style="enable-background:new 0 0 512 512" xml:space="preserve" class=""><g><g xmlns="http://www.w3.org/2000/svg"><path d="m327.191 176.441c4.143 0 7.5-3.357 7.5-7.5v-9.844c0-4.143-3.357-7.5-7.5-7.5s-7.5 3.357-7.5 7.5v9.844c0 4.143 3.358 7.5 7.5 7.5z" fill="#ffffff" data-original="#000000"></path><path d="m262.573 176.441c4.143 0 7.5-3.357 7.5-7.5v-9.844c0-4.143-3.357-7.5-7.5-7.5s-7.5 3.357-7.5 7.5v9.844c0 4.143 3.358 7.5 7.5 7.5z" fill="#ffffff" data-original="#000000"></path><path d="m294.809 236.033c14.507 0 26.309-11.803 26.309-26.31 0-4.143-3.357-7.5-7.5-7.5s-7.5 3.357-7.5 7.5c0 6.236-5.073 11.31-11.309 11.31s-11.309-5.073-11.309-11.31c0-4.143-3.357-7.5-7.5-7.5s-7.5 3.357-7.5 7.5c0 14.507 11.802 26.31 26.309 26.31z" fill="#ffffff" data-original="#000000"></path><path d="m465.649 402.17c4.143 0 7.5-3.357 7.5-7.5v-23.26c0-21.484-13.722-40.393-34.216-47.073l-92.745-29.218v-29.837c21.644-15.981 32.289-42.124 31.37-68.577 17.207 1.322 35.956-8.878 35.956-28.397v-15.658c0-7.5-2.928-14.326-7.694-19.407.097-.482.149-21.393.149-21.393 0-4.143-3.357-7.5-7.5-7.5s-7.5 3.357-7.5 7.5v12.4h-104.99c-12.406 0-22.5-10.094-22.5-22.5v-64.25c0-12.406 10.094-22.5 22.5-22.5h50.91c29.82 0 54.08 24.26 54.08 54.08v10.08c0 4.143 3.357 7.5 7.5 7.5s7.5-3.357 7.5-7.5v-10.08c.001-38.091-30.989-69.08-69.079-69.08h-50.91c-18.482 0-33.873 13.442-36.936 31.062h-12.575c-28.948 0-52.5 23.552-52.5 52.5 0 0 .042 48.998.104 49.389-4.93 5.111-7.973 12.054-7.973 19.699v15.658c0 19.216 18.662 29.871 35.958 28.397-1.65 26.301 10.056 52.84 31.37 68.577v30.136l-67.474 25.219c-6.566 2.464-12.296 6.698-16.567 12.245l-43.453 56.407v-25.104c0-6.774-3.014-12.855-7.767-16.983v-31.061c0-12.699-10.332-23.031-23.031-23.031s-23.03 10.332-23.03 23.031v25.544c-15.796 0-23.296 8.863-23.296 22.5v63.188c0 9.973 6.526 18.448 15.529 21.389v25.738c0 36.074 46.595 51.75 69.011 21.14l39.709-47.976v56.796c0 4.143 3.357 7.5 7.5 7.5h295.09c4.143 0 7.5-3.357 7.5-7.5v-77.1c0-4.143-3.357-7.5-7.5-7.5s-7.5 3.357-7.5 7.5v69.6h-47.123v-99.512c0-4.143-3.357-7.5-7.5-7.5s-7.5 3.357-7.5 7.5v6.071h-217.966v-7.74c0-4.143-3.357-7.5-7.5-7.5s-7.5 3.357-7.5 7.5v28.36l-51.497 62.219c-12.278 14.82-42.223 15.268-42.223-11.858v-24.626h23.828v8.031c0 4.143 3.357 7.5 7.5 7.5s7.5-3.357 7.5-7.5v-13.548c4.755-4.129 7.771-10.211 7.771-16.988v-13.507l55.332-71.827c2.564-3.33 6.007-5.873 9.944-7.351l68.496-25.602 40.585 30.559c2.934 2.209 6.8 1.701 9.502-.36l40.31-30.352 94.247 29.691c14.231 4.64 23.794 17.816 23.794 32.789v23.26c0 4.144 3.358 7.501 7.5 7.501zm-69.623 16.35v47.421h-128.756c-4.143 0-7.5 3.357-7.5 7.5s3.357 7.5 7.5 7.5h128.757v16.02h-217.967v-16.02h56.53c4.143 0 7.5-3.357 7.5-7.5s-3.357-7.5-7.5-7.5h-56.53v-47.421zm-318.92-102.377c0-4.429 3.603-8.031 8.03-8.031 4.429 0 8.031 3.603 8.031 8.031v25.544h-16.061zm-23.295 48.044c0-4.136 3.364-7.5 7.5-7.5h32.124c4.136 0 7.5 3.364 7.5 7.5v8.563h-23.562c-4.143 0-7.5 3.357-7.5 7.5s3.357 7.5 7.5 7.5h23.562v16.063h-23.562c-4.143 0-7.5 3.357-7.5 7.5s3.357 7.5 7.5 7.5h23.562v8.563c0 5.001-3.033 7.16-7.495 7.496l-32.129.004c-4.136 0-7.5-3.364-7.5-7.5zm344.704-195.879c0 7.388-6.01 13.397-13.397 13.397h-7.559v-42.453h7.559c7.388 0 13.397 6.01 13.397 13.397zm-199.546-84.746c0-20.678 16.822-37.5 37.5-37.5h12.011v55.688.002c0 12.406-10.094 22.5-22.5 22.5h-6.421-20.59zm5.529 98.143c-7.388 0-13.397-6.01-13.397-13.397v-15.658c0-7.388 6.01-13.397 13.397-13.397h7.561v42.453h-7.561zm22.561 21.597v-64.077c11.813-.336 22.277-6.151 28.922-15 6.847 9.116 17.746 15.025 29.999 15.025h76.577l.002 64.052c0 82.414-135.5 82.318-135.5 0zm104.129 70.634v22.912l-36.378 27.412-36.381-27.413v-22.91c17.884 10.73 53.55 10.063 72.759-.001z" fill="#ffffff" data-original="#000000"></path><path d="m79.835 214.355c3.536 2.928 7.072 2.928 10.607 0l31.062-31.063c2.929-2.93 2.929-7.678-.001-10.607-2.928-2.928-7.677-2.928-10.606 0l-25.758 25.76-10.228-10.229c-2.93-2.928-7.678-2.928-10.607 0-2.929 2.93-2.929 7.678 0 10.607z" fill="#ffffff" data-original="#000000"></path><path d="m61.311 263.5h63.187c12.406 0 22.5-10.094 22.5-22.5v-8.563h23.563c7.92-.063 11.42-6.104 5.333-12.773l-28.896-29.226v-44.396c0-12.406-10.094-22.5-22.5-22.5h-63.187c-12.406 0-22.5 10.094-22.5 22.5v94.958c0 12.406 10.093 22.5 22.5 22.5zm-7.5-117.458c0-4.136 3.364-7.5 7.5-7.5h63.187c4.136 0 7.5 3.364 7.5 7.5v47.479c0 1.975.778 3.869 2.167 5.273l18.434 18.644h-13.101c-4.143 0-7.5 3.357-7.5 7.5v16.062c0 4.136-3.364 7.5-7.5 7.5h-63.187c-4.136 0-7.5-3.364-7.5-7.5z" fill="#ffffff" data-original="#000000"></path></g></g></svg>