<svg xmlns="http://www.w3.org/2000/svg" version="1.1" xmlns:xlink="http://www.w3.org/1999/xlink" xmlns:svgjs="http://svgjs.com/svgjs" width="512" height="512" x="0" y="0" viewBox="0 0 24 24" style="enable-background:new 0 0 512 512" xml:space="preserve" class=""><g>
<title xmlns="http://www.w3.org/2000/svg">Artboard 31</title>
<g xmlns="http://www.w3.org/2000/svg">
	<path d="M20.671,15.48h0.854c0.214,0,0.387-0.173,0.387-0.387v-2.325c-0.001-0.214-0.173-0.386-0.387-0.387h-2.326   c-0.214,0-0.387,0.173-0.387,0.387v2.323c0,0.214,0.173,0.387,0.387,0.387h0.686c-0.579,3.246-3.099,5.8-6.337,6.422v-0.619   c-0.001-0.214-0.174-0.387-0.388-0.387h-0.491c0.514-1.229,1.173-2.391,1.962-3.464c0.188-0.238,0.163-0.58-0.057-0.789   c-0.351-0.375-0.653-0.792-0.9-1.242c0.007-0.023,0.012-0.047,0.014-0.071v-9.6c0-0.934-0.757-1.691-1.691-1.691   s-1.691,0.757-1.691,1.691v9.6c0.002,0.028,0.008,0.055,0.016,0.082c-0.238,0.427-0.523,0.826-0.85,1.19   c-0.125,0.091-0.207,0.23-0.225,0.383c-0.021,0.163,0.025,0.328,0.129,0.456c0.788,1.071,1.445,2.233,1.955,3.461h-0.493   c-0.214,0-0.387,0.173-0.388,0.387V21.9c-0.191-0.038-0.37-0.105-0.556-0.156c-2.984-0.786-5.24-3.232-5.782-6.27h0.687   c0.214,0,0.387-0.173,0.387-0.387v-2.319c0-0.214-0.173-0.387-0.387-0.387H2.475c-0.214,0.001-0.386,0.174-0.387,0.387v2.323   c0,0.214,0.173,0.387,0.387,0.387h0.854c0.468,2.92,2.39,5.4,5.1,6.582H5.136c-0.214-0.828-1.058-1.326-1.886-1.112   c-0.828,0.214-1.326,1.058-1.112,1.886c0.214,0.828,1.058,1.326,1.886,1.112c0.545-0.141,0.971-0.567,1.112-1.112h5.314v0.774   c0.001,0.214,0.174,0.387,0.388,0.387h2.322c0.166,0,0.313-0.108,0.363-0.266c0.015-0.039,0.023-0.08,0.025-0.121v-0.774h5.314   c0.04,0.148,0.103,0.289,0.186,0.418c0.442,0.728,1.391,0.961,2.12,0.518c0.461-0.28,0.742-0.779,0.742-1.318   c-0.009-0.852-0.697-1.541-1.549-1.552c-0.706,0.001-1.323,0.478-1.5,1.162h-3.29C18.282,20.88,20.204,18.4,20.671,15.48z    M19.587,14.7v-1.545h1.549V14.7H19.587z M2.862,14.7v-1.545h1.549V14.7H2.862z M4.411,22.443c0.002,0.428-0.344,0.776-0.772,0.778   c-0.001,0-0.001,0-0.002,0v-0.004c-0.428,0.001-0.775-0.346-0.776-0.774s0.346-0.775,0.774-0.776   c0.428-0.001,0.775,0.346,0.776,0.774C4.411,22.441,4.411,22.442,4.411,22.443z M11.088,5.735   c-0.017-0.503,0.378-0.925,0.881-0.942c0.503-0.017,0.925,0.378,0.942,0.881c0.001,0.02,0.001,0.04,0,0.06v9.208h-1.823V5.735z    M10.083,17.079c0.37-0.413,0.69-0.868,0.952-1.357h1.927c0.262,0.49,0.582,0.947,0.954,1.36c-0.579,0.805-1.09,1.657-1.527,2.547   v-1.955h0.044c0.215,0.011,0.398-0.155,0.409-0.37c0.011-0.215-0.155-0.398-0.37-0.409c-0.013-0.001-0.026-0.001-0.039,0h-0.868   c-0.215-0.011-0.398,0.155-0.409,0.37c-0.011,0.215,0.155,0.398,0.37,0.409c0.013,0.001,0.026,0.001,0.039,0h0.044v1.943   C11.171,18.73,10.661,17.881,10.083,17.079z M12.773,23.221h-1.548v-1.549h1.548V23.221z M20.361,21.673   c0.419,0.021,0.754,0.356,0.775,0.775c-0.001,0.427-0.348,0.773-0.775,0.773v0.001c-0.419-0.019-0.755-0.354-0.774-0.774   C19.587,22.02,19.933,21.673,20.361,21.673z" fill="#ffffff" data-original="#000000"></path>
	<path d="M10.09,3.999c2.228-1.053,4.889-0.101,5.942,2.127c0.978,2.069,0.233,4.542-1.725,5.726   c-0.184,0.111-0.244,0.351-0.133,0.535c0.07,0.117,0.196,0.188,0.333,0.189c0.071,0,0.14-0.02,0.2-0.057   c1.576-0.945,2.537-2.651,2.527-4.488c-0.008-0.224-0.03-0.447-0.067-0.668c-0.328-2.606-2.536-4.566-5.163-4.583h-0.012   C9.1,2.78,6.754,5.124,6.753,8.017c0,0.781,0.174,1.552,0.51,2.257c0.236,0.505,0.552,0.969,0.936,1.374   c0.321,0.336,0.686,0.628,1.083,0.869c0.06,0.036,0.13,0.056,0.2,0.056c0.215-0.002,0.389-0.178,0.387-0.393   c-0.001-0.135-0.072-0.26-0.187-0.33c-0.4-0.245-0.76-0.551-1.065-0.908c-0.263-0.302-0.483-0.638-0.654-1   C6.909,7.713,7.862,5.053,10.09,3.999z" fill="#ffffff" data-original="#000000"></path>
	<path d="M4.274,9.718l1.025,0.256c0.147,0.491,0.344,0.965,0.588,1.416l-0.544,0.907c-0.092,0.154-0.068,0.35,0.058,0.477   l1.855,1.854l0.009,0.006c0.072,0.069,0.167,0.107,0.267,0.108c0.07,0,0.14-0.019,0.2-0.055l0.907-0.544   c0.227,0.124,0.461,0.236,0.7,0.335c0.199,0.083,0.428-0.011,0.51-0.211s-0.011-0.428-0.211-0.51c-0.276-0.114-0.543-0.247-0.8-0.4   c-0.123-0.075-0.277-0.075-0.4,0l-0.842,0.505L7.431,13.7l-1.264-1.263l0.506-0.842c0.074-0.123,0.074-0.277,0-0.4   c-0.122-0.21-0.231-0.427-0.326-0.65C6.2,10.226,6.082,9.895,5.992,9.556C5.957,9.417,5.848,9.308,5.709,9.273L4.758,9.035V7.021   l0.951-0.238C5.848,6.748,5.957,6.639,5.992,6.5c0.147-0.576,0.376-1.128,0.681-1.638c0.074-0.123,0.074-0.277,0-0.4L6.167,3.62   l1.425-1.425L8.434,2.7c0.123,0.074,0.277,0.074,0.4,0c0.273-0.162,0.558-0.302,0.852-0.419c0.256-0.105,0.519-0.193,0.787-0.262   c0.139-0.035,0.247-0.144,0.282-0.283l0.244-0.951h2.01l0.238,0.951c0.034,0.139,0.143,0.248,0.282,0.283   c0.576,0.147,1.128,0.376,1.639,0.681c0.123,0.074,0.277,0.074,0.4,0l0.843-0.505l1.425,1.424l-0.5,0.842   c-0.073,0.123-0.073,0.277,0,0.4c0.301,0.511,0.527,1.063,0.67,1.639c0.035,0.139,0.144,0.248,0.283,0.283l0.951,0.238v2.014   l-0.951,0.238c-0.139,0.035-0.248,0.144-0.283,0.283c-0.147,0.576-0.376,1.128-0.681,1.639c-0.074,0.123-0.074,0.277,0,0.4   l0.5,0.842L16.4,13.862l-0.843-0.505c-0.123-0.075-0.277-0.075-0.4,0c-0.257,0.152-0.524,0.286-0.8,0.4   c-0.199,0.083-0.293,0.311-0.211,0.51c0.083,0.199,0.311,0.293,0.51,0.211c0.237-0.099,0.469-0.211,0.694-0.335l0.909,0.544   c0.06,0.037,0.129,0.056,0.2,0.055c0.103,0,0.202-0.041,0.275-0.114l1.864-1.854c0.127-0.127,0.151-0.324,0.058-0.477l-0.544-0.907   c0.248-0.449,0.444-0.924,0.586-1.416l1.025-0.256c0.175-0.042,0.299-0.198,0.3-0.378V6.717c-0.001-0.18-0.125-0.337-0.3-0.379   l-1.025-0.256c-0.143-0.492-0.34-0.967-0.588-1.416l0.544-0.907c0.093-0.153,0.069-0.35-0.058-0.477l-1.855-1.855   c-0.127-0.125-0.322-0.149-0.475-0.058l-0.908,0.544c-0.449-0.248-0.924-0.445-1.416-0.588L13.687,0.3   c-0.044-0.173-0.199-0.295-0.378-0.295h-2.62c-0.18,0.001-0.336,0.125-0.378,0.3L10.055,1.33C9.754,1.42,9.459,1.531,9.173,1.661   c-0.18,0.08-0.36,0.161-0.534,0.257L7.732,1.369c-0.154-0.091-0.35-0.068-0.477,0.058L5.399,3.282   c-0.126,0.127-0.15,0.323-0.058,0.477l0.544,0.907C5.638,5.115,5.441,5.59,5.299,6.082L4.274,6.338   c-0.173,0.044-0.295,0.2-0.295,0.379V9.34C3.979,9.519,4.101,9.674,4.274,9.718z" fill="#ffffff" data-original="#000000"></path>
</g>
</g></svg>