<svg xmlns="http://www.w3.org/2000/svg" version="1.1" xmlns:xlink="http://www.w3.org/1999/xlink" xmlns:svgjs="http://svgjs.com/svgjs" width="512" height="512" x="0" y="0" viewBox="0 0 64 64" style="enable-background:new 0 0 512 512" xml:space="preserve" class=""><g><path xmlns="http://www.w3.org/2000/svg" d="M62,16H59.623a12,12,0,1,0-23.235,0H24.414L11.157,2.743h0a5.95,5.95,0,1,0-8.414,8.415l.441.44A8.541,8.541,0,0,0,1,17.266V55H1a7.992,7.992,0,0,0,8,8H62a1,1,0,0,0,1-1V17A1,1,0,0,0,62,16ZM38.067,11.816A10,10,0,0,1,58,13a9.877,9.877,0,0,1-2.125,6.156A13.287,13.287,0,0,0,53,27H51V21h1a3,3,0,1,0-3-3v1H47V18a3,3,0,1,0-3,3h1v6H43a13.459,13.459,0,0,0-2.929-7.917A9.99,9.99,0,0,1,38.067,11.816ZM50,33a2,2,0,0,1-4,0Zm-6-2a1,1,0,0,1-1-1V29H53v1a1,1,0,0,1-1,1Zm1-12H44a1,1,0,1,1,1-1Zm4,8H47V21h2Zm2-8V18a1,1,0,1,1,1,1ZM30.509,30.508l-2.772-.831,1.94-1.94Zm-4.948-1.484L23,28.256V26h2a1,1,0,0,0,1-1V23h2.256l.768,2.562ZM10.414,16,12.5,13.914,22.586,24H22a1,1,0,0,0-1,1v1.585ZM9,14.586,7.414,13,13,7.414,14.586,9ZM25,21a1,1,0,0,0-1,1v.586L13.914,12.5,16,10.414,26.586,21ZM6.95,3A3.924,3.924,0,0,1,9.743,4.157h0L11.586,6,6,11.585,4.157,9.742A3.949,3.949,0,0,1,6.95,3ZM4.6,13.014,15,23.414V49.708q-.183-.207-.383-.4A7.913,7.913,0,0,0,8.887,47,8,8,0,0,0,3,49.75V17.266A6.512,6.512,0,0,1,4.6,13.014ZM61,61H9a6,6,0,0,1-6-6.085A6.115,6.115,0,0,1,8.914,49H9a6,6,0,0,1,6,6,1,1,0,0,0,2,0V25.414l4.293,4.293a1,1,0,0,0,.42.251l10,3A1.012,1.012,0,0,0,32,33a1,1,0,0,0,.958-1.287l-3-10a1,1,0,0,0-.251-.42L26.414,18H37.1a11.986,11.986,0,0,0,1.379,2.3A11.43,11.43,0,0,1,41,27.276V30a3,3,0,0,0,3,3,4,4,0,0,0,8,0,3,3,0,0,0,3-3V27.271a11.243,11.243,0,0,1,2.449-6.881A12.021,12.021,0,0,0,58.906,18H61Z" fill="#ffffff" data-original="#000000" class=""></path><path xmlns="http://www.w3.org/2000/svg" d="M39.861,51.619A9.858,9.858,0,0,0,40.534,50H42a1,1,0,0,0,1-1V45a1,1,0,0,0-1-1H40.534a9.858,9.858,0,0,0-.673-1.619L40.9,41.343a1,1,0,0,0,0-1.414L38.071,37.1a1,1,0,0,0-1.414,0l-1.038,1.037A9.9,9.9,0,0,0,34,37.466V36a1,1,0,0,0-1-1H29a1,1,0,0,0-1,1v1.466a9.9,9.9,0,0,0-1.619.672L25.343,37.1a1.029,1.029,0,0,0-1.414,0L21.1,39.929a1,1,0,0,0,0,1.414l1.038,1.038A9.858,9.858,0,0,0,21.466,44H20a1,1,0,0,0-1,1v4a1,1,0,0,0,1,1h1.466a9.858,9.858,0,0,0,.673,1.619L21.1,52.657a1,1,0,0,0,0,1.414L23.929,56.9a1,1,0,0,0,1.414,0l1.038-1.038A9.858,9.858,0,0,0,28,56.534V58a1,1,0,0,0,1,1h4a1,1,0,0,0,1-1V56.534a9.858,9.858,0,0,0,1.619-.673L36.657,56.9a1.029,1.029,0,0,0,1.414,0L40.9,54.071a1,1,0,0,0,0-1.414ZM38.8,48.778a7.959,7.959,0,0,1-1.027,2.473,1,1,0,0,0,.138,1.241l.872.872-1.414,1.414-.872-.872a1,1,0,0,0-1.24-.139,7.918,7.918,0,0,1-2.474,1.027,1,1,0,0,0-.778.975V57H30V55.769a1,1,0,0,0-.778-.975,7.918,7.918,0,0,1-2.474-1.027,1,1,0,0,0-1.24.139l-.872.872-1.414-1.414.872-.872a1,1,0,0,0,.138-1.241,7.959,7.959,0,0,1-1.027-2.473A1,1,0,0,0,22.23,48H21V46h1.23a1,1,0,0,0,.975-.778,7.959,7.959,0,0,1,1.027-2.473,1,1,0,0,0-.138-1.241l-.872-.872,1.414-1.414.872.872a1,1,0,0,0,1.24.139,7.913,7.913,0,0,1,2.474-1.027A1,1,0,0,0,30,38.23V37h2v1.23a1,1,0,0,0,.778.976,7.913,7.913,0,0,1,2.474,1.027,1,1,0,0,0,1.24-.139l.872-.872,1.414,1.414-.872.872a1,1,0,0,0-.138,1.241A7.959,7.959,0,0,1,38.8,45.222,1,1,0,0,0,39.77,46H41v2H39.77A1,1,0,0,0,38.8,48.778Z" fill="#ffffff" data-original="#000000" class=""></path><path xmlns="http://www.w3.org/2000/svg" d="M31,41a6,6,0,1,0,6,6A6.006,6.006,0,0,0,31,41Zm0,10a4,4,0,1,1,4-4A4,4,0,0,1,31,51Z" fill="#ffffff" data-original="#000000" class=""></path><path xmlns="http://www.w3.org/2000/svg" d="M54,13h2a8.009,8.009,0,0,0-8-8V7A6.006,6.006,0,0,1,54,13Z" fill="#ffffff" data-original="#000000" class=""></path><path xmlns="http://www.w3.org/2000/svg" d="M52.5,44A3.5,3.5,0,0,1,49,40.5V39H47v1.5A5.506,5.506,0,0,0,52.5,46a4.5,4.5,0,0,1,0,9H42v2H52.5a6.5,6.5,0,0,0,0-13Z" fill="#ffffff" data-original="#000000" class=""></path></g></svg>