<svg xmlns="http://www.w3.org/2000/svg" version="1.1" xmlns:xlink="http://www.w3.org/1999/xlink" xmlns:svgjs="http://svgjs.com/svgjs" width="512" height="512" x="0" y="0" viewBox="0 0 64 64" style="enable-background:new 0 0 512 512" xml:space="preserve" class=""><g><g xmlns="http://www.w3.org/2000/svg"><path d="m17 49h2v2h-2z" fill="#ffffff" data-original="#000000" class=""></path><path d="m21 49h2v2h-2z" fill="#ffffff" data-original="#000000" class=""></path><path d="m13 49h2v2h-2z" fill="#ffffff" data-original="#000000" class=""></path><path d="m58.293 10.293-4.293 4.293-1.293-1.293-1.414 1.414 2.707 2.707 5.707-5.707z" fill="#ffffff" data-original="#000000" class=""></path><path d="m61 29h-5v-8.069c3.94-.495 7-3.859 7-7.931 0-4.411-3.589-8-8-8-4.072 0-7.436 3.06-7.931 7h-17.122c-.256-3.041-1.656-5.895-3.949-7.946-2.542-2.273-5.958-3.354-9.375-2.977-5.264.588-9.67 4.802-10.476 10.021-.661 4.28.931 8.46 4.258 11.183 1.013.827 1.595 1.992 1.595 3.195v6.807c-.279.122-.564.232-.834.37l-2.549-1.312-5.274 5.274 1.312 2.549c-.363.711-.671 1.457-.919 2.229l-2.736.878v7.459l2.734.876c.248.773.556 1.52.919 2.229l-1.312 2.549 5.274 5.273 2.548-1.311c.709.362 1.456.67 2.229.919l.879 2.735h7.459l.876-2.734c.774-.249 1.52-.557 2.229-.919l2.548 1.311 5.274-5.273-1.312-2.549c.363-.71.671-1.456.919-2.229l2.736-.878v-7.459l-2.734-.876c-.248-.772-.556-1.519-.919-2.229l1.312-2.549-5.274-5.274-2.549 1.312c-.27-.138-.555-.249-.834-.37v-6.814c0-1.208.563-2.355 1.545-3.149 2.569-2.079 4.13-5.071 4.399-8.32h17.125c.453 3.612 3.319 6.477 6.931 6.931v8.068h-5c-1.103 0-2 .897-2 2v6c0 1.103.897 2 2 2h5v2h-5c-1.103 0-2 .897-2 2v6c0 1.103.897 2 2 2h5v2h-5c-1.103 0-2 .897-2 2v6c0 1.103.897 2 2 2h12c1.103 0 2-.897 2-2v-6c0-1.103-.897-2-2-2h-5v-2h5c1.103 0 2-.897 2-2v-6c0-1.103-.897-2-2-2h-5v-2h5c1.103 0 2-.897 2-2v-6c-.002-1.103-.899-2-2.002-2zm-39-2v10h-8v-10zm-4.665-11h1.329l-.6 9h-.129zm-4.96 22.987 3.284 6.569c.446.89 1.343 1.444 2.341 1.444s1.895-.554 2.34-1.444l3.287-6.574c2.343 1.888 3.628 4.868 3.328 7.929-.411 4.192-3.745 7.57-7.927 8.031-2.6.29-5.1-.506-7.03-2.235-1.905-1.707-2.998-4.151-2.998-6.707 0-2.742 1.27-5.318 3.375-7.013zm2.243.013h6.764l-2.831 5.661c-.209.418-.894.418-1.103 0zm9.72-4.345.468.262 2.194-1.13 3.211 3.212-1.129 2.194.262.469c.487.87.875 1.811 1.153 2.797l.146.517 2.357.753v4.541l-2.356.754-.146.517c-.279.987-.667 1.929-1.153 2.797l-.262.469 1.129 2.194-3.211 3.211-2.195-1.129-.468.263c-.867.484-1.807.872-2.796 1.152l-.517.146-.754 2.356h-4.541l-.755-2.356-.517-.146c-.989-.28-1.929-.668-2.796-1.152l-.468-.263-2.195 1.129-3.211-3.211 1.129-2.194-.262-.469c-.486-.868-.875-1.81-1.153-2.797l-.146-.517-2.356-.753v-4.541l2.356-.754.146-.517c.278-.986.667-1.927 1.153-2.797l.262-.469-1.129-2.194 3.211-3.212 2.194 1.13.468-.262c.11-.062.226-.115.338-.173v2.325c-3.088 2.023-4.999 5.48-4.999 9.193 0 3.124 1.335 6.111 3.664 8.196 2.023 1.812 4.652 2.802 7.361 2.802.406 0 .815-.022 1.223-.067 5.116-.564 9.195-4.696 9.697-9.824.402-4.106-1.529-8.089-4.946-10.32v-2.304c.113.058.229.111.339.172zm-.051-13.889c-1.327 1.073-2.129 2.597-2.26 4.234h-1.958l.6-9h1.331c1.654 0 3-1.346 3-3s-1.346-3-3-3h-.129c-1.573 0-2.888 1.23-2.993 2.801l-.08 1.199h-1.596l-.08-1.199c-.105-1.571-1.42-2.801-2.993-2.801h-.129c-1.654 0-3 1.346-3 3s1.346 3 3 3h1.331l.6 9h-1.959c-.135-1.63-.952-3.165-2.301-4.269-2.773-2.269-4.099-5.756-3.548-9.329.67-4.342 4.338-7.848 8.721-8.337 2.896-.324 5.671.557 7.82 2.479 2.12 1.896 3.336 4.614 3.336 7.456 0 3.025-1.354 5.856-3.713 7.766zm-3.485-6.766.071-1.066c.035-.524.474-.934.998-.934h.129c.551 0 1 .448 1 1s-.449 1-1 1zm-5.604 0h-1.198c-.551 0-1-.448-1-1s.449-1 1-1h.129c.524 0 .963.41.998.934zm33.802-1c0-3.309 2.691-6 6-6s6 2.691 6 6-2.691 6-6 6-6-2.691-6-6zm12.001 48h-12.001v-6h12zm0-12h-12.001v-6h12zm-12.001-12v-6h12l.001 6z" fill="#ffffff" data-original="#000000" class=""></path><path d="m51 33h8v2h-8z" fill="#ffffff" data-original="#000000" class=""></path><path d="m51 45h8v2h-8z" fill="#ffffff" data-original="#000000" class=""></path><path d="m51 57h8v2h-8z" fill="#ffffff" data-original="#000000" class=""></path></g></g></svg>