<svg xmlns="http://www.w3.org/2000/svg" version="1.1" xmlns:xlink="http://www.w3.org/1999/xlink" xmlns:svgjs="http://svgjs.com/svgjs" width="512" height="512" x="0" y="0" viewBox="0 0 16 16" style="enable-background:new 0 0 512 512" xml:space="preserve" class=""><g><g xmlns="http://www.w3.org/2000/svg"><path d="m5.25 2h-3.5c-.965 0-1.75.785-1.75 1.75v5.5c0 2.619 2.131 4.75 4.75 4.75h.25c1.103 0 2-.897 2-2s-.897-2-2-2h-.5c-.138 0-.25-.112-.25-.25v-.5c0-.138.112-.25.25-.25h.75c.965 0 1.75-.785 1.75-1.75v-3.5c0-.965-.785-1.75-1.75-1.75zm.25 5.25c0 .138-.112.25-.25.25h-.75c-.965 0-1.75.785-1.75 1.75v.5c0 .965.785 1.75 1.75 1.75h.5c.276 0 .5.224.5.5s-.224.5-.5.5h-.25c-1.792 0-3.25-1.458-3.25-3.25v-5.5c0-.138.112-.25.25-.25h3.5c.138 0 .25.112.25.25z" fill="#64f4ab" data-original="#000000" class=""></path><path d="m13.5 9h.75c.965 0 1.75-.785 1.75-1.75v-3.5c0-.965-.785-1.75-1.75-1.75h-.5c-.414 0-.75.336-.75.75s.336.75.75.75h.5c.138 0 .25.112.25.25v3.5c0 .138-.112.25-.25.25h-.75c-.965 0-1.75.785-1.75 1.75v.5c0 .965.785 1.75 1.75 1.75h.5c.276 0 .5.224.5.5s-.224.5-.5.5h-.25c-1.792 0-3.25-1.458-3.25-3.25v-5.5c0-.138.112-.25.25-.25h.5c.414 0 .75-.336.75-.75s-.336-.75-.75-.75h-.5c-.965 0-1.75.785-1.75 1.75v5.5c0 2.619 2.131 4.75 4.75 4.75h.25c1.103 0 2-.897 2-2s-.897-2-2-2h-.5c-.138 0-.25-.112-.25-.25v-.5c0-.138.112-.25.25-.25z" fill="#64f4ab" data-original="#000000" class=""></path></g></g></svg>